<svg width="244" height="47" viewBox="0 0 244 47" fill="none" xmlns="http://www.w3.org/2000/svg">
<g id="Logo &#38; Name">
<g id="Combined Shape">
<path fill-rule="evenodd" clip-rule="evenodd" d="M1 23.5C1 35.9264 11.0736 46 23.5 46H243.5V1H23.5C11.0736 1 1 11.0736 1 23.5Z" fill="white"/>
<path d="M243.5 46V46.4536H243.954V46H243.5ZM243.5 1H243.954V0.546392H243.5V1ZM23.5 45.5464C11.3241 45.5464 1.45361 35.6759 1.45361 23.5H0.546392C0.546392 36.1769 10.8231 46.4536 23.5 46.4536V45.5464ZM243.5 45.5464H23.5V46.4536H243.5V45.5464ZM243.046 1V46H243.954V1H243.046ZM23.5 1.45361H243.5V0.546392H23.5V1.45361ZM1.45361 23.5C1.45361 11.3241 11.3241 1.45361 23.5 1.45361V0.546392C10.8231 0.546392 0.546392 10.8231 0.546392 23.5H1.45361Z" fill="#D0021B"/>
</g>
<g id="Logo" clip-path="url(#clip0)">
<ellipse id="Oval" cx="23.0834" cy="23.9167" rx="18.75" ry="18.75" fill="#D0021B"/>
<path id="&#60;/&#62;" d="M11.6403 23.6661L16.2256 26.2074C16.4558 26.3363 16.6077 26.4514 16.6814 26.5527C16.7596 26.6539 16.7988 26.7828 16.7988 26.9394C16.7988 27.1373 16.7274 27.31 16.5847 27.4573C16.442 27.6 16.2762 27.6714 16.0875 27.6714C15.9632 27.6714 15.7767 27.6023 15.5281 27.4642L8.69857 23.6661L15.5281 19.8681C15.7767 19.7346 15.9609 19.6678 16.0806 19.6678C16.2739 19.6678 16.442 19.7392 16.5847 19.8819C16.7274 20.0246 16.7988 20.195 16.7988 20.3929C16.7988 20.5495 16.7596 20.6784 16.6814 20.7796C16.6077 20.8809 16.4558 20.996 16.2256 21.1249L11.6403 23.6661ZM25.4758 18.929L20.9388 28.7072C20.8238 28.9512 20.7202 29.11 20.6281 29.1837C20.5084 29.2803 20.3634 29.3287 20.193 29.3287C19.9997 29.3287 19.8317 29.2596 19.6889 29.1215C19.5508 28.9834 19.4818 28.8269 19.4818 28.6519C19.4818 28.5276 19.537 28.3458 19.6475 28.1064L24.1983 18.3351C24.3133 18.0911 24.4146 17.9323 24.5021 17.8586C24.6264 17.7619 24.7714 17.7136 24.9371 17.7136C25.1305 17.7136 25.2962 17.7826 25.4343 17.9207C25.5725 18.0543 25.6415 18.2085 25.6415 18.3834C25.6415 18.5077 25.5863 18.6896 25.4758 18.929ZM33.4899 23.6661L28.9046 21.1249C28.6744 20.996 28.5202 20.8809 28.4419 20.7796C28.3683 20.6784 28.3314 20.5495 28.3314 20.3929C28.3314 20.195 28.4028 20.0246 28.5455 19.8819C28.6882 19.7392 28.8563 19.6678 29.0496 19.6678C29.1693 19.6678 29.3535 19.7346 29.6021 19.8681L36.4316 23.6661L29.6021 27.4642C29.3535 27.6023 29.1693 27.6714 29.0496 27.6714C28.8563 27.6714 28.6882 27.6 28.5455 27.4573C28.4028 27.3146 28.3314 27.1419 28.3314 26.9394C28.3314 26.7828 28.3683 26.6539 28.4419 26.5527C28.5202 26.4514 28.6744 26.3363 28.9046 26.2074L33.4899 23.6661Z" fill="white"/>
</g>
<g id="code&#226;&#128;&#147;red.uk">
<path d="M62.4179 34.5554C60.9014 35.0753 59.3892 35.3353 57.8813 35.3353C55.4202 35.3353 53.5223 34.694 52.1878 33.4114C50.8619 32.1289 50.1989 30.309 50.1989 27.9519C50.1989 25.6381 50.8532 23.8312 52.1618 22.5313C53.479 21.2314 55.3075 20.5815 57.6473 20.5815C59.1379 20.5815 60.6414 20.8068 62.158 21.2574V23.4023C60.4854 22.8043 59.0599 22.5053 57.8813 22.5053C56.3388 22.5053 55.1255 22.9906 54.2416 23.9612C53.3663 24.9318 52.9287 26.262 52.9287 27.9519C52.9287 29.6591 53.3967 30.998 54.3326 31.9686C55.2772 32.9305 56.5771 33.4114 58.2323 33.4114C59.4715 33.4114 60.8667 33.1211 62.4179 32.5405V34.5554ZM74.2654 35.3353C72.1942 35.3353 70.565 34.681 69.3778 33.3724C68.1992 32.0552 67.6099 30.2484 67.6099 27.9519C67.6099 25.6641 68.2035 23.8659 69.3908 22.5573C70.578 21.2401 72.2029 20.5815 74.2654 20.5815C76.3365 20.5815 77.9614 21.2401 79.14 22.5573C80.3272 23.8659 80.9208 25.6641 80.9208 27.9519C80.9208 30.2484 80.3272 32.0552 79.14 33.3724C77.9614 34.681 76.3365 35.3353 74.2654 35.3353ZM74.2654 33.4114C75.4959 33.4114 76.4579 32.9305 77.1511 31.9686C77.8444 31.0066 78.1911 29.6677 78.1911 27.9519C78.1911 26.2447 77.8444 24.9101 77.1511 23.9482C76.4579 22.9863 75.4959 22.5053 74.2654 22.5053C73.0348 22.5053 72.0729 22.9863 71.3796 23.9482C70.6863 24.9101 70.3397 26.2447 70.3397 27.9519C70.3397 29.6677 70.6863 31.0066 71.3796 31.9686C72.0729 32.9305 73.0348 33.4114 74.2654 33.4114ZM95.849 35.0103V32.3585C94.6011 34.343 93.0586 35.3353 91.2214 35.3353C89.6269 35.3353 88.366 34.7157 87.4387 33.4764C86.5201 32.2372 86.0608 30.5517 86.0608 28.4198C86.0608 26.08 86.6068 24.1909 87.6987 22.7523C88.7906 21.3051 90.2205 20.5815 91.9883 20.5815C93.5049 20.5815 94.7918 21.2228 95.849 22.5053V14.485H98.4098V35.0103H95.849ZM95.849 24.4292C94.6531 23.1466 93.4832 22.5053 92.3393 22.5053C91.2127 22.5053 90.3375 22.9993 89.7135 23.9872C89.0982 24.9751 88.7906 26.366 88.7906 28.1599C88.7906 31.4789 89.7828 33.1385 91.7673 33.1385C93.2146 33.1385 94.5751 32.2372 95.849 30.4347V24.4292ZM116.848 34.4514C115.071 35.0406 113.442 35.3353 111.96 35.3353C109.534 35.3353 107.666 34.7113 106.358 33.4634C105.058 32.2155 104.408 30.4304 104.408 28.1079C104.408 25.9154 105.032 24.1129 106.28 22.7003C107.536 21.2878 109.131 20.5815 111.063 20.5815C113.013 20.5815 114.447 21.1664 115.366 22.3363C116.293 23.5062 116.757 25.3261 116.757 27.7959V28.6148H107.137C107.328 31.8126 109.053 33.4114 112.311 33.4114C113.689 33.4114 115.201 33.0821 116.848 32.4235V34.4514ZM107.215 26.691H114.027V26.327C114.027 23.7792 112.965 22.5053 110.842 22.5053C109.82 22.5053 108.988 22.8736 108.346 23.6102C107.714 24.3468 107.337 25.3738 107.215 26.691ZM122.508 27.9519V26.353H135.013V27.9519H122.508Z" fill="#0B0909"/>
<path d="M140.342 21.2468V35.0103H144.123V28.8074C144.123 28.1862 144.185 27.6094 144.309 27.077C144.433 26.5446 144.637 26.0831 144.921 25.6927C145.223 25.2845 145.613 24.965 146.093 24.7343C146.572 24.5036 147.157 24.3882 147.85 24.3882C148.08 24.3882 148.32 24.4059 148.568 24.4414C148.817 24.4592 149.03 24.4858 149.207 24.5213V21.0072C148.906 20.9185 148.631 20.8741 148.382 20.8741C147.903 20.8741 147.441 20.9451 146.998 21.0871C146.554 21.2291 146.137 21.4332 145.747 21.6994C145.356 21.9479 145.01 22.2584 144.708 22.6312C144.407 22.9861 144.167 23.3766 143.989 23.8025H143.936V21.2468H140.342ZM161.61 26.6511H155.46C155.478 26.3848 155.531 26.0831 155.62 25.7459C155.727 25.4087 155.895 25.0892 156.126 24.7875C156.374 24.4858 156.694 24.2373 157.084 24.0421C157.493 23.8291 157.998 23.7227 158.602 23.7227C159.525 23.7227 160.208 23.9711 160.652 24.4681C161.113 24.965 161.433 25.6927 161.61 26.6511ZM155.46 29.047H165.39C165.461 27.9821 165.373 26.9616 165.124 25.9855C164.876 25.0094 164.468 24.1397 163.9 23.3766C163.349 22.6134 162.639 22.01 161.77 21.5663C160.9 21.1048 159.88 20.8741 158.708 20.8741C157.661 20.8741 156.703 21.0605 155.833 21.4332C154.981 21.8059 154.245 22.3206 153.624 22.9772C153.002 23.6162 152.523 24.3793 152.186 25.2667C151.849 26.1541 151.68 27.1125 151.68 28.1419C151.68 29.2068 151.84 30.1829 152.159 31.0703C152.497 31.9577 152.967 32.7208 153.57 33.3598C154.174 33.9987 154.91 34.4956 155.78 34.8506C156.65 35.1878 157.626 35.3564 158.708 35.3564C160.27 35.3564 161.601 35.0014 162.702 34.2915C163.802 33.5816 164.618 32.4014 165.151 30.7508H161.823C161.699 31.1768 161.362 31.585 160.811 31.9754C160.261 32.3481 159.605 32.5345 158.841 32.5345C157.777 32.5345 156.96 32.2594 156.392 31.7092C155.824 31.159 155.514 30.2716 155.46 29.047ZM179.527 28.0886C179.527 28.6566 179.474 29.2068 179.367 29.7392C179.261 30.2716 179.083 30.7508 178.835 31.1768C178.586 31.585 178.249 31.9133 177.823 32.1618C177.415 32.4102 176.9 32.5345 176.279 32.5345C175.693 32.5345 175.188 32.4102 174.762 32.1618C174.353 31.8956 174.007 31.5583 173.723 31.1501C173.457 30.7242 173.262 30.245 173.138 29.7126C173.013 29.1801 172.951 28.6477 172.951 28.1153C172.951 27.5473 173.005 27.006 173.111 26.4913C173.235 25.9589 173.422 25.4886 173.67 25.0804C173.936 24.6722 174.282 24.3438 174.708 24.0954C175.134 23.8469 175.658 23.7227 176.279 23.7227C176.9 23.7227 177.415 23.8469 177.823 24.0954C178.231 24.3438 178.56 24.6722 178.808 25.0804C179.074 25.4708 179.261 25.9323 179.367 26.4647C179.474 26.9794 179.527 27.5207 179.527 28.0886ZM179.58 33.2533V35.0103H183.174V16.0023H179.394V22.924H179.341C178.915 22.2496 178.329 21.7438 177.583 21.4066C176.856 21.0516 176.084 20.8741 175.267 20.8741C174.256 20.8741 173.368 21.0782 172.605 21.4864C171.842 21.8769 171.203 22.4004 170.688 23.0571C170.191 23.7138 169.81 24.4769 169.544 25.3466C169.295 26.1985 169.171 27.0859 169.171 28.0088C169.171 28.9672 169.295 29.89 169.544 30.7774C169.81 31.6648 170.191 32.4546 170.688 33.1468C171.203 33.8212 171.851 34.3625 172.632 34.7707C173.413 35.1612 174.318 35.3564 175.347 35.3564C176.252 35.3564 177.06 35.1967 177.77 34.8772C178.498 34.54 179.083 33.9987 179.527 33.2533H179.58ZM188.315 30.9106V35.0103H192.495V30.9106H188.315ZM210.601 35.0103V21.2468H206.82V28.4613C206.82 29.8634 206.59 30.8751 206.128 31.4962C205.667 32.0997 204.921 32.4014 203.892 32.4014C202.987 32.4014 202.357 32.1263 202.002 31.5761C201.647 31.0082 201.469 30.1563 201.469 29.0204V21.2468H197.689V29.7126C197.689 30.5645 197.76 31.3454 197.902 32.0553C198.062 32.7475 198.328 33.342 198.701 33.839C199.074 34.3181 199.579 34.6909 200.218 34.9571C200.875 35.2233 201.709 35.3564 202.721 35.3564C203.519 35.3564 204.3 35.1789 205.063 34.824C205.827 34.469 206.448 33.8922 206.927 33.0935H207.007V35.0103H210.601ZM215.94 16.0023V35.0103H219.721V30.2716L221.185 28.8607L224.965 35.0103H229.544L223.767 26.305L228.958 21.2468H224.486L219.721 26.1985V16.0023H215.94Z" fill="#D0021B"/>
</g>
</g>
<defs>
<clipPath id="clip0">
<rect width="37.5" height="37.5" fill="white" transform="translate(4.33337 5.16667)"/>
</clipPath>
</defs>
</svg>
