<svg width="38" height="38" viewBox="0 0 38 38" fill="none" xmlns="http://www.w3.org/2000/svg">
<g clip-path="url(#clip0)">
<ellipse cx="19.0834" cy="18.9167" rx="18.75" ry="18.75" fill="#D0021B"/>
<path d="M7.64045 18.6661L12.2257 21.2074C12.4559 21.3363 12.6078 21.4514 12.6815 21.5527C12.7597 21.6539 12.7989 21.7828 12.7989 21.9394C12.7989 22.1373 12.7275 22.31 12.5848 22.4573C12.4421 22.6 12.2764 22.6714 12.0876 22.6714C11.9633 22.6714 11.7769 22.6023 11.5283 22.4642L4.69869 18.6661L11.5283 14.8681C11.7769 14.7346 11.961 14.6678 12.0807 14.6678C12.2741 14.6678 12.4421 14.7392 12.5848 14.8819C12.7275 15.0246 12.7989 15.195 12.7989 15.3929C12.7989 15.5495 12.7597 15.6784 12.6815 15.7796C12.6078 15.8809 12.4559 15.996 12.2257 16.1249L7.64045 18.6661ZM21.4759 13.929L16.939 23.7072C16.8239 23.9512 16.7203 24.11 16.6282 24.1837C16.5085 24.2803 16.3635 24.3287 16.1932 24.3287C15.9998 24.3287 15.8318 24.2596 15.6891 24.1215C15.551 23.9834 15.4819 23.8269 15.4819 23.6519C15.4819 23.5276 15.5371 23.3458 15.6476 23.1064L20.1984 13.3351C20.3135 13.0911 20.4148 12.9323 20.5022 12.8586C20.6265 12.7619 20.7715 12.7136 20.9373 12.7136C21.1306 12.7136 21.2964 12.7826 21.4345 12.9207C21.5726 13.0543 21.6416 13.2085 21.6416 13.3834C21.6416 13.5077 21.5864 13.6896 21.4759 13.929ZM29.49 18.6661L24.9047 16.1249C24.6745 15.996 24.5203 15.8809 24.4421 15.7796C24.3684 15.6784 24.3316 15.5495 24.3316 15.3929C24.3316 15.195 24.4029 15.0246 24.5456 14.8819C24.6884 14.7392 24.8564 14.6678 25.0497 14.6678C25.1694 14.6678 25.3536 14.7346 25.6022 14.8681L32.4318 18.6661L25.6022 22.4642C25.3536 22.6023 25.1694 22.6714 25.0497 22.6714C24.8564 22.6714 24.6884 22.6 24.5456 22.4573C24.4029 22.3146 24.3316 22.1419 24.3316 21.9394C24.3316 21.7828 24.3684 21.6539 24.4421 21.5527C24.5203 21.4514 24.6745 21.3363 24.9047 21.2074L29.49 18.6661Z" fill="white"/>
</g>
<defs>
<clipPath id="clip0">
<rect width="37.5" height="37.5" fill="white" transform="translate(0.333374 0.166672)"/>
</clipPath>
</defs>
</svg>
